<?xml version="1.0" standalone="no"?>
<!DOCTYPE svg PUBLIC "-//W3C//DTD SVG 20010904//EN"
 "http://www.w3.org/TR/2001/REC-SVG-20010904/DTD/svg10.dtd">
<svg version="1.0" xmlns="http://www.w3.org/2000/svg"
 width="600.000000pt" height="600.000000pt" viewBox="0 0 600.000000 600.000000"
 preserveAspectRatio="xMidYMid meet">
<metadata>
Created by potrace 1.11, written by Peter Selinger 2001-2013
</metadata>
<g transform="translate(0.000000,600.000000) scale(0.100000,-0.100000)"
fill="#000000" stroke="none">
<path d="M597 4052 c-2 -4 -3 -214 -3 -467 l1 -460 75 0 75 0 0 128 0 129 138
137 137 137 -135 134 c-74 73 -135 135 -135 137 0 1 101 3 225 3 l225 0 0 64
0 65 -299 0 c-165 1 -302 -3 -304 -7z"/>
<path d="M1630 3588 l0 -473 294 0 c162 0 297 3 301 6 5 6 9 80 6 114 -1 7
-78 10 -218 10 -120 -1 -223 0 -229 2 -6 2 -11 29 -11 64 0 57 1 59 26 59 14
1 117 1 229 1 l202 0 1 27 c0 15 2 44 3 65 1 31 -2 37 -19 38 -11 0 -114 1
-228 1 -114 0 -205 3 -202 7 3 3 64 65 137 138 l132 132 -139 139 -140 140
-72 1 -73 1 0 -472z"/>
<path d="M2821 4043 c8 -9 43 -46 77 -81 l64 -63 74 74 c41 41 74 77 74 81 0
3 -68 6 -151 6 -141 0 -151 -1 -138 -17z"/>
<path d="M3648 4048 c-2 -7 -4 -220 -4 -473 l1 -460 73 0 72 0 0 70 c0 70 0
71 43 113 l43 42 114 -113 115 -113 98 1 c53 0 97 2 97 5 0 3 -72 77 -160 165
l-160 160 106 106 106 106 -203 201 -202 202 -68 0 c-45 0 -68 -4 -71 -12z"/>
<path d="M4935 4051 c-3 -6 -38 -97 -76 -203 -70 -189 -177 -482 -237 -645
-17 -46 -27 -84 -24 -86 4 -2 38 -3 76 -3 l70 1 43 125 c24 69 46 131 49 139
3 10 27 -7 77 -57 40 -40 76 -72 81 -72 5 0 40 32 79 71 38 38 71 68 73 66 2
-2 24 -61 49 -132 25 -71 48 -131 51 -134 3 -3 39 -6 80 -6 63 -1 74 2 68 15
-10 25 -203 547 -244 660 -21 58 -51 141 -68 185 l-30 80 -55 3 c-30 1 -58 -2
-62 -7z"/>
<path d="M2910 3470 c-138 -138 -250 -254 -250 -258 0 -4 21 -29 48 -55 l47
-47 258 258 257 257 -48 48 c-26 26 -51 47 -55 47 -4 0 -120 -113 -257 -250z"/>
<path d="M640 2682 l-46 -3 0 -469 c1 -259 3 -470 6 -471 33 -7 132 -3 138 5
3 6 7 37 7 69 l1 57 198 198 c109 108 198 200 199 204 2 8 -392 407 -402 409
-23 3 -63 4 -101 1z"/>
<path d="M4965 2682 c-29 -3 -31 -7 -110 -220 -43 -119 -121 -329 -171 -467
-51 -137 -90 -252 -88 -254 7 -7 132 -9 142 -2 7 5 102 262 102 278 0 3 34
-30 76 -72 87 -88 70 -90 173 18 l55 57 11 -27 c7 -16 29 -79 50 -140 21 -62
43 -114 49 -114 6 -1 41 -2 79 -3 56 -1 66 1 61 14 -6 15 -60 164 -89 245 -8
22 -68 184 -132 360 -116 313 -119 319 -148 325 -16 3 -43 4 -60 2z"/>
<path d="M1630 2206 l0 -475 68 3 c37 2 69 4 72 5 3 0 5 32 4 70 -1 70 -1 70
42 112 l43 42 114 -114 115 -115 93 2 c52 0 97 2 101 3 3 0 -65 72 -153 159
-87 86 -159 161 -159 167 0 5 46 56 102 112 l103 103 -199 199 -199 199 -74 1
-73 1 0 -474z"/>
<path d="M2659 2672 c-1 -10 -1 -870 0 -908 l1 -30 300 0 c337 -1 303 -9 302
74 -1 60 8 58 -231 57 -121 0 -222 2 -222 5 -1 3 -3 31 -4 63 l-2 57 56 1 c31
0 134 1 229 1 94 0 172 3 173 7 5 40 2 114 -5 119 -5 3 -108 5 -228 5 -120 0
-218 1 -218 3 0 1 61 64 136 138 l136 136 -138 138 -139 138 -72 1 c-40 1 -73
-2 -74 -5z"/>
<path d="M3649 2676 c-1 0 -2 -29 -3 -63 l-2 -63 30 -1 c17 0 75 0 129 0 53 0
97 -3 98 -7 0 -4 1 -33 2 -64 l2 -58 -57 0 -58 0 0 -65 0 -65 58 0 57 0 0
-277 0 -278 73 -1 72 -1 0 278 0 278 57 3 57 3 1 63 0 62 -57 0 -58 0 0 66 0
65 108 -1 c59 -1 117 -1 130 -1 20 1 22 5 22 64 l0 64 -330 0 c-181 0 -331 0
-331 -1z"/>
</g>
</svg>
